<svg width="400" height="400" viewBox="0 0 400 400" fill="none" xmlns="http://www.w3.org/2000/svg">
<rect width="400" height="400" rx="200" fill="black" style="fill:black;fill-opacity:1;"/>
<path fill-rule="evenodd" clip-rule="evenodd" d="M248.062 108.538L200 136.002L151.938 108.538C147.019 105.727 140.981 105.727 136.062 108.538L96.0618 131.395C91.0766 134.244 88 139.546 88 145.287V254.717C88 260.459 91.0766 265.76 96.0618 268.609L136.062 291.466C140.981 294.277 147.019 294.277 151.938 291.466L200 264.002L248.062 291.466C252.981 294.277 259.019 294.277 263.938 291.466L303.938 268.609C308.923 265.76 312 260.459 312 254.717V145.287C312 139.546 308.923 134.244 303.938 131.395L263.938 108.538C259.019 105.727 252.981 105.727 248.062 108.538ZM200 264.002L130.24 224.139C111.564 213.467 111.564 186.537 130.24 175.865L200 136.002L269.76 175.865C288.436 186.537 288.436 213.467 269.76 224.139L200 264.002ZM240 200.002C240 191.166 247.163 184.002 256 184.002C264.837 184.002 272 191.166 272 200.002C272 208.839 264.837 216.002 256 216.002C247.163 216.002 240 208.839 240 200.002ZM144 184.002C135.163 184.002 128 191.166 128 200.002C128 208.839 135.163 216.002 144 216.002C152.837 216.002 160 208.839 160 200.002C160 191.166 152.837 184.002 144 184.002Z" fill="white" style="fill:white;fill-opacity:1;"/>
</svg>
